<svg xmlns="http://www.w3.org/2000/svg" xmlns:xlink="http://www.w3.org/1999/xlink" width="215.4" height="32.045" viewBox="0 0 215.4 32.045">
  <defs>
    <clipPath id="clip-path">
      <rect id="Retângulo_1" data-name="Retângulo 1" width="215.4" height="32.045" fill="#f66806"/>
    </clipPath>
  </defs>
  <g id="Grupo_56" data-name="Grupo 56" transform="translate(0 0)">
    <g id="Grupo_1" data-name="Grupo 1" transform="translate(0 0)" clip-path="url(#clip-path)">
      <path id="Caminho_1" data-name="Caminho 1" d="M91.878,19.949,81.806,6.265a4.064,4.064,0,0,1-.847-2.451,3.35,3.35,0,0,1,3.432-3.3,3.949,3.949,0,0,1,3.387,2.1l7.577,10.92,7.71-11.009a3.933,3.933,0,0,1,3.3-2.05,3.18,3.18,0,0,1,3.342,3.343,4.254,4.254,0,0,1-.891,2.406L98.742,19.814v9a3.432,3.432,0,0,1-6.864,0Z" transform="translate(-35.053 -0.204)" fill="#f66806"/>
      <path id="Caminho_2" data-name="Caminho 2" d="M139.909,4.455a3.4,3.4,0,0,1,3.432-3.432h9.314c7.443,0,11.944,4.412,11.944,10.785v.09c0,7.22-5.616,10.963-12.613,10.963h-5.214v6.2a3.432,3.432,0,0,1-6.864,0Zm12.3,12.3c3.432,0,5.437-2.05,5.437-4.724v-.089c0-3.076-2.139-4.724-5.57-4.724h-5.3v9.538Z" transform="translate(-60.577 -0.443)" fill="#f66806"/>
      <path id="Caminho_3" data-name="Caminho 3" d="M192.416,4.455a3.4,3.4,0,0,1,3.432-3.432h10.83c3.967,0,7.042,1.114,9.092,3.164a9.8,9.8,0,0,1,2.675,7.131v.09A9.524,9.524,0,0,1,212.2,20.9l4.769,5.794a4,4,0,0,1,1.115,2.629,3.192,3.192,0,0,1-3.254,3.164,4.106,4.106,0,0,1-3.387-1.783l-6.685-8.467h-5.483v6.819a3.432,3.432,0,0,1-6.863,0Zm13.816,11.721c3.343,0,5.259-1.783,5.259-4.412v-.09c0-2.941-2.05-4.457-5.393-4.457h-6.819v8.958Z" transform="translate(-83.312 -0.443)" fill="#f66806"/>
      <path id="Caminho_4" data-name="Caminho 4" d="M249.795,20.763a3.432,3.432,0,1,1,6.863,0V36.117a3.432,3.432,0,0,1-6.863,0Z" transform="translate(-108.156 -7.504)" fill="#f66806"/>
      <path id="Caminho_5" data-name="Caminho 5" d="M275.655,4.072A3.406,3.406,0,0,1,279.087.64h.713a4.252,4.252,0,0,1,3.565,2.006L296.6,20.027V3.939a3.387,3.387,0,1,1,6.774,0V28.762a3.4,3.4,0,0,1-3.431,3.432h-.223a4.25,4.25,0,0,1-3.565-2.006L282.429,12.182V28.9a3.387,3.387,0,0,1-6.774,0Z" transform="translate(-119.352 -0.238)" fill="#f66806"/>
      <path id="Caminho_6" data-name="Caminho 6" d="M343.109,7.351h-6.6a3.165,3.165,0,0,1,0-6.329H356.57a3.165,3.165,0,0,1,0,6.329h-6.6v21.7a3.432,3.432,0,0,1-6.864,0Z" transform="translate(-144.333 -0.442)" fill="#f66806"/>
      <path id="Caminho_7" data-name="Caminho 7" d="M249.849,3.951v.064a3.4,3.4,0,1,0,6.8,0V3.951a3.4,3.4,0,1,0-6.8,0" transform="translate(-108.179 -0.238)" fill="#f66806"/>
      <path id="Caminho_8" data-name="Caminho 8" d="M45.637,27.32a4.424,4.424,0,0,1,.268,1.292,3.407,3.407,0,0,1-3.521,3.343A3.464,3.464,0,0,1,39.042,29.5l-6.2-19.119-6.24,18.941a3.614,3.614,0,0,1-3.476,2.719H22.6a3.565,3.565,0,0,1-3.477-2.719L12.88,10.384,6.685,29.5a3.434,3.434,0,0,1-3.3,2.452A3.311,3.311,0,0,1,0,28.657,4.735,4.735,0,0,1,.268,27.32L9,2.807A3.8,3.8,0,0,1,12.568,0h.713A3.7,3.7,0,0,1,16.8,2.807l6.151,17.872L29.1,2.807A3.7,3.7,0,0,1,32.624,0h.713A3.8,3.8,0,0,1,36.9,2.807Z" transform="translate(0 0)" fill="#f66806"/>
    </g>
  </g>
</svg>

